<?xml version="1.0" encoding="utf-8"?>
<!-- Generator: Adobe Illustrator 23.0.2, SVG Export Plug-In . SVG Version: 6.00 Build 0)  -->
<svg version="1.1" id="Capa_1" xmlns="http://www.w3.org/2000/svg" xmlns:xlink="http://www.w3.org/1999/xlink" x="0px" y="0px"
	 viewBox="0 0 512 512" style="enable-background:new 0 0 512 512;" xml:space="preserve">
<style type="text/css">
	.st0{fill:#ec1c24;}
</style>
<path class="st0" d="M245.2,10.7v464.9L71.4,301.8c-4.2-4.1-11-4-15.1,0.3c-4,4.1-4,10.7,0,14.8l192,192c4.2,4.2,10.9,4.2,15.1,0
	c0,0,0,0,0,0l192-192c4.2-4.1,4.4-10.8,0.3-15.1c-4.1-4.2-10.8-4.4-15.1-0.3c-0.1,0.1-0.2,0.2-0.3,0.3L266.5,475.6V10.7
	c0-5.9-4.8-10.7-10.7-10.7C250,0,245.2,4.8,245.2,10.7z"/>
<path class="st0" d="M458.5,309.3c0,2.8-1.1,5.5-3.1,7.6l-192,192c-4.2,4.2-10.9,4.2-15.1,0l-192-192c-4.1-4.2-4-11,0.3-15.1
	c4.1-4,10.7-4,14.8,0l184.4,184.4l184.4-184.4c4.2-4.2,10.9-4.2,15.1,0C457.4,303.8,458.5,306.5,458.5,309.3z"/>
<path class="st0" d="M266.5,10.7v490.7c0,5.9-4.8,10.7-10.7,10.7c-5.9,0-10.7-4.8-10.7-10.7V10.7C245.2,4.8,250,0,255.9,0
	C261.7,0,266.5,4.8,266.5,10.7z"/>
</svg>
