<svg xmlns="http://www.w3.org/2000/svg" xmlns:xlink="http://www.w3.org/1999/xlink" viewBox="0 0 56.54 81.32"><defs><style>.cls-1{fill:none;}.cls-2{clip-path:url(#clip-path);}.cls-3{fill:#ec1c24;}</style><clipPath id="clip-path" transform="translate(-26.87 -3.04)"><rect class="cls-1" x="16.67" y="11.89" width="68.41" height="82.35" transform="translate(-20.45 35.26) rotate(-32.18)"/></clipPath></defs><title>logo-top</title><g id="Слой_2" data-name="Слой 2"><g id="Слой_1-2" data-name="Слой 1"><g class="cls-2"><path class="cls-3" d="M48.37,7.26h0c0,.14-.12.19-.15.33A214.41,214.41,0,0,0,27,75.65l0,.14,0,.13c0,.23-.1.42-.08.64l.07-.28a6.88,6.88,0,0,0,2,5.74,7.21,7.21,0,0,0,4.46,2l1.22.06a6.92,6.92,0,0,0,4.52-2c.37-.35.61-.74.89-1a7.39,7.39,0,0,0,.79-1.56A16.44,16.44,0,0,1,55.1,71.09a16.62,16.62,0,0,1,14.31,8.47,10.69,10.69,0,0,0,.79,1.63,6.27,6.27,0,0,0,.92,1.08,7.21,7.21,0,0,0,4.46,2l1.22.06a7,7,0,0,0,6.56-7.79l0,.23-.06-.67,0-.14,0-.08A215.14,215.14,0,0,0,62.65,7.61l-.16-.25a8,8,0,0,0-14.12-.1" transform="translate(-26.87 -3.04)"/></g></g></g></svg>