<?xml version="1.0" encoding="utf-8"?>
<!-- Generator: Adobe Illustrator 22.0.1, SVG Export Plug-In . SVG Version: 6.00 Build 0)  -->
<svg version="1.1" id="Layer_1" xmlns="http://www.w3.org/2000/svg" xmlns:xlink="http://www.w3.org/1999/xlink" x="0px" y="0px"
	 viewBox="0 0 693.9 154.3" style="enable-background:new 0 0 693.9 154.3;" xml:space="preserve">
<style type="text/css">
	.st0{fill:#EC1C24;}
	.st1{fill:#1A1A1A;}
</style>
<g>
	<g>
		<path class="st0" d="M681.9,1.1L681.9,1.1C681.9,1.1,681.9,1.1,681.9,1.1c-0.1,0.1-0.2,0.1-0.3,0.2
			c-20.5,12.3-38.8,27.9-54.2,46.3c0,0-0.1,0.1-0.1,0.1c0,0-0.1,0.1-0.1,0.1c-0.1,0.2-0.3,0.3-0.4,0.5l0.2-0.2
			c-1.3,1.6-1.9,3.8-1.4,5.9c0.4,1.7,1.4,3.1,2.7,4.1l1,0.7c1.5,0.8,3.2,1.1,4.9,0.7c0.5-0.1,0.9-0.3,1.3-0.4c0.6-0.2,1-0.6,1.5-0.9
			c5.1-2.8,11.5-2.7,16.6,0.5c5.1,3.3,7.9,9,7.6,14.8c-0.1,0.6-0.2,1.2-0.2,1.8c0,0.5,0.1,0.9,0.2,1.4c0.4,1.7,1.4,3.1,2.7,4.1
			l1,0.7c1.5,0.8,3.2,1.1,4.9,0.7c2.2-0.5,3.9-1.9,4.8-3.8l-0.1,0.2c0.1-0.2,0.2-0.4,0.3-0.6c0,0,0.1-0.1,0.1-0.1c0,0,0-0.1,0-0.1
			C685,56,691.4,32.8,693.8,9c0-0.1,0-0.2,0-0.3c0,0,0,0,0,0l0,0C694.4,2.3,687.4-2.1,681.9,1.1z"/>
		<path class="st0" d="M659.2,87.3c-1.2-1.2-2-2.8-2.2-4.4c-47.1,72.1-155.9,83-214.2,9.9c-3.5-3.7-10.4-1.6-10.4,4
			c0,1.5,0.6,2.9,1.5,3.9c60.5,75.2,177.9,71.2,232.4-10.5c0.2-0.3,0.4-0.6,0.5-0.9C664.2,90,661.3,89.4,659.2,87.3z"/>
	</g>
	<path class="st0" d="M17.2,86.9L0,29.1h14.2l9.7,40.5l11.9-40.5h9.9l11.9,40.5l9.7-40.5h14.2L64.4,86.9H52.5L40.8,50.2L29.2,86.9
		H17.2z"/>
	<path class="st0" d="M104.3,61.4v1.8c0,9.3,4.2,14,12.5,14c5.1,0,9.1-2,11.9-6l10.2,6c-2.4,3.9-5.4,6.7-9.1,8.4
		c-3.7,1.7-8.6,2.5-14.6,2.5c-8.7,0-15.1-2.2-19-6.6c-4-4.4-6-11.4-6-21.1v-4.1c0-10.1,1.9-17.3,5.8-21.8c3.9-4.5,10.2-6.7,19-6.7
		c8.8,0,15.1,2.2,19,6.7c3.9,4.5,5.8,11.7,5.8,21.8v5.1H104.3z M104.2,51.8h22.4v-1.2c0-4-1-7-2.9-9.1c-1.9-2.1-4.7-3.1-8.4-3.1
		c-3.5,0-6.3,1.1-8.2,3.2s-2.9,5.1-2.9,9V51.8z"/>
	<path class="st0" d="M153.3,86.9V6.5h14v25.3c4.1-2.6,8.5-3.9,13.3-3.9c7.6,0,13.1,2,16.5,6.1c3.4,4.1,5.1,10.7,5.1,19.8v8.4
		c0,9.2-1.7,15.8-5.1,19.8c-3.4,4.1-9,6.1-16.7,6.1c-3.7,0-6.6-0.4-8.7-1.1c-2.1-0.7-4.4-2.1-6.8-4.2l-0.8,4.1H153.3z M188.3,61.2
		v-6.4c0-5.5-0.8-9.5-2.5-12c-1.7-2.5-4.3-3.8-7.9-3.8c-7.1,0-10.6,4.4-10.6,13.3v11.4c0,8.8,3.5,13.2,10.6,13.2
		c3.6,0,6.3-1.3,7.9-3.8C187.4,70.6,188.3,66.6,188.3,61.2z"/>
	<path class="st0" d="M217.1,112.2V29.1h10.8l1.4,3.7c4.1-3.3,9-5,14.9-5c7.7,0,13.3,2,16.7,6.1c3.4,4.1,5.1,10.7,5.1,19.8v8.4
		c0,9.1-1.7,15.7-5.1,19.8c-3.4,4.1-8.9,6.1-16.5,6.1c-4.9,0-9.3-1.3-13.3-3.8v27.9H217.1z M252.1,61.2v-6.4c0-5.5-0.8-9.5-2.5-12
		c-1.7-2.5-4.3-3.8-7.9-3.8c-7.1,0-10.6,4.4-10.6,13.3v11.4c0,8.8,3.5,13.2,10.6,13.2c3.6,0,6.3-1.3,7.9-3.8
		C251.3,70.6,252.1,66.6,252.1,61.2z"/>
	<path class="st0" d="M280.4,29.1h14v31.4c0,5.6,0.7,9.6,2.1,12c1.4,2.4,3.7,3.6,7,3.6c3.6,0,6.1-1.3,7.6-3.9
		c1.5-2.6,2.2-7.1,2.2-13.4V29.1h14v57.8h-9.7l-1.7-5.4c-2.9,4.4-8,6.6-15.1,6.6c-9.8,0-16.1-3.7-18.7-11.1
		c-1.1-3.2-1.7-8.1-1.7-14.9V29.1z"/>
	<path class="st0" d="M343.8,6.5h14v57.7c-0.1,4.4,0.6,7.4,2,9c1.4,1.7,4.1,2.4,7.9,2.4h2.1v11.4h-2.7c-9.5,0-15.7-1.6-18.8-4.7
		c-3-3.2-4.6-9.6-4.6-19.4V6.5z"/>
	<path class="st0" d="M380.1,40.2h-6.5v-11h6.5l0.8-16.9H394v16.9h11.5v11H394v24c0,4.4,0.7,7.5,2.1,9.1c1.4,1.6,4,2.4,7.8,2.3h1.6
		v11.4h-2c-9.7,0-16-1.5-19-4.6c-3-3-4.4-9.6-4.4-19.5V40.2z"/>
	<g>
		<path class="st1" d="M427,72.6h-0.5c-3.9,0-7.2,3.2-7.2,7.2c0,3.9,3.2,7.2,7.2,7.2h0.5c3.9,0,7.2-3.2,7.2-7.2
			C434.1,75.8,430.9,72.6,427,72.6z"/>
		<path class="st1" d="M527.7,33.3l-1.7-4.2h-10.7v57.8h0c0,0,0,0.1,0,0.1c0,3.9,3.1,7,7,7c3.9,0,7-3.1,7-7c0,0,0-0.1,0-0.1h0V59
			c0-6.8,0.7-11.6,2.1-14.6c1.4-3,3.7-4.4,6.9-4.4c2.5,0,5,1,7.7,3l6.1-11.5c-4.4-2.4-8.5-3.6-12.4-3.6
			C535,27.9,531,29.7,527.7,33.3z"/>
		<path class="st1" d="M602.4,34c-3.9-4.1-10.3-6.1-19-6.1c-8.8,0-15.1,2-19.1,6.1c-3.9,4.1-5.9,10.6-5.9,19.7v8.7
			c0,9.1,2,15.7,5.9,19.7c3.9,4.1,10.3,6.1,19.1,6.1c8.7,0,15-2,19-6.1c3.9-4.1,5.9-10.6,5.9-19.7v-8.7
			C608.3,44.6,606.3,38,602.4,34z M594.3,61.3c0,5.6-0.8,9.5-2.5,11.9c-1.7,2.4-4.5,3.6-8.4,3.6c-3.9,0-6.7-1.2-8.4-3.6
			c-1.7-2.4-2.6-6.4-2.6-11.9v-6.8c0-5.6,0.9-9.5,2.6-11.9c1.7-2.4,4.5-3.6,8.4-3.6c3.9,0,6.7,1.2,8.4,3.6c1.7,2.4,2.5,6.4,2.5,11.9
			V61.3z"/>
		<path class="st1" d="M478.6,27.9c-5.9,0-10.8,1.7-14.9,5l-1.4-3.7h-10.8v63.5c4.3,5.1,9,9.7,14,13.9V84.3c4,2.6,8.4,3.8,13.3,3.8
			c7.6,0,13.1-2,16.5-6.1c3.4-4.1,5.1-10.7,5.1-19.8v-8.4c0-9.2-1.7-15.8-5.1-19.8C491.9,29.9,486.3,27.9,478.6,27.9z M486.6,61.2
			c0,5.4-0.8,9.4-2.5,11.9c-1.7,2.5-4.3,3.8-7.9,3.8c-7.1,0-10.6-4.4-10.6-13.2V52.3c0-8.9,3.5-13.3,10.6-13.3
			c3.6,0,6.3,1.3,7.9,3.8c1.7,2.5,2.5,6.5,2.5,12V61.2z"/>
	</g>
</g>
</svg>
