<?xml version="1.0" encoding="utf-8"?><svg xmlns="http://www.w3.org/2000/svg" xmlns:xlink="http://www.w3.org/1999/xlink"><symbol class="asvg-inline--fa afa-arrow-left afa-w-14" viewBox="0 0 448 512" id="arrow-l" xmlns="http://www.w3.org/2000/svg"><path d="M257.5 445.1l-22.2 22.2c-9.4 9.4-24.6 9.4-33.9 0L7 273c-9.4-9.4-9.4-24.6 0-33.9L201.4 44.7c9.4-9.4 24.6-9.4 33.9 0l22.2 22.2c9.5 9.5 9.3 25-.4 34.3L136.6 216H424c13.3 0 24 10.7 24 24v32c0 13.3-10.7 24-24 24H136.6l120.5 114.8c9.8 9.3 10 24.8.4 34.3z"/></symbol><symbol viewBox="0 0 22 24" id="basket" xmlns="http://www.w3.org/2000/svg"><g clip-path="url(#bclip0)"><path d="M10.363 18.443a2.046 2.046 0 00-2.045 2.042 2.046 2.046 0 004.09 0 2.046 2.046 0 00-2.045-2.042zm6.134 0a2.046 2.046 0 00-2.045 2.042 2.046 2.046 0 004.089 0 2.046 2.046 0 00-2.044-2.042zm3.978-8.199L7.413 6.891a.614.614 0 00-.75.73L8.67 16.4h-.786L5.482 5.895a.613.613 0 00-.474-.464l-4.27-.882A.614.614 0 00.489 5.75l3.885.802L6.797 17.15a.613.613 0 00.598.477h12.07a.615.615 0 00.607-.53l.858-6.175a.613.613 0 00-.455-.678zm-8.14 3.91a.613.613 0 01-1.227 0v-2.696a.613.613 0 011.227 0v2.696zm2.625 0a.613.613 0 01-1.227 0v-1.88a.613.613 0 011.227 0v1.88zm2.625 0a.613.613 0 01-1.227 0v-1.226a.613.613 0 011.227 0v1.226z"/></g><path fill-rule="evenodd" clip-rule="evenodd" d="M16.268 4.568a2.996 2.996 0 00-1.693-.523c-.627 0-1.21.193-1.693.523-.28-.843-.492-1.752-.492-2.383C12.39.98 13.37 0 14.575 0s2.185.98 2.185 2.185c0 .631-.212 1.54-.492 2.383zm-4.722 2.274l.024.006v-.011l-.024.005zm4.972 1.217c-1.333-.33-2.766-.681-4.129-1.013a2.185 2.185 0 114.129 1.013zm4.436 1.103c-.866-.217-2.155-.538-3.618-.9a2.995 2.995 0 00.243-1.425c.87.18 1.762.45 2.308.765.596.344.969.928 1.067 1.56zM9.869 6.439c-.36-.086-.706-.167-1.03-.243a2.19 2.19 0 01-.376-2.667 2.188 2.188 0 013.147-.7c.098.738.338 1.599.61 2.353a3.01 3.01 0 00-.449.774c-.628.113-1.305.278-1.902.483zm10.124.075a3.43 3.43 0 01-.217.114c-.696-.295-1.587-.526-2.397-.672a3.01 3.01 0 00-.449-.774c.262-.727.494-1.553.599-2.273.095-.067.189-.128.278-.18a2.188 2.188 0 012.986.8 2.188 2.188 0 01-.8 2.985z"/><defs><clipPath id="bclip0"><path transform="translate(0 3.064)" d="M0 0h20.936v20.936H0z"/></clipPath></defs></symbol><symbol viewBox="0 0 344.96 344.96" id="check" xmlns="http://www.w3.org/2000/svg"><g data-name="Слой 2"><path d="M321.85 86.24l-40-23.11-23.1-40H212.5L172.48 0l-40 23.11H86.24l-23.11 40-40 23.1v46.21L0 172.48l23.11 40v46.21l40 23.11 23.11 40h46.21l40 23.1 40-23.11h46.21l23.11-40 40-23.11V212.5l23.11-40-23.11-40V86.24zM156.91 243.07a16.79 16.79 0 01-23.34 0l-50.45-50.44a16.19 16.19 0 010-22.89l13.35-13.35a16.19 16.19 0 0122.89 0l25.87 25.87 80.34-80.35a16.19 16.19 0 0122.89 0l13.35 13.35a16.19 16.19 0 010 22.89z" data-name="Capa 1"/></g></symbol><symbol viewBox="-20 -129 638.671 638" id="cloud" xmlns="http://www.w3.org/2000/svg"><path d="M478.906 132.813c-4.785.003-9.562.292-14.312.863-12.895-41.988-51.63-70.684-95.551-70.774a98.316 98.316 0 00-32.121 5.364c-25.578-55.309-86.195-85.368-145.7-72.25C131.712 9.136 89.356 61.89 89.399 122.824a127.84 127.84 0 003.891 31.223C36.594 162.703-3.914 213.516.301 270.715c4.207 57.203 51.719 101.543 109.07 101.797h369.535c66.192 0 119.848-53.66 119.848-119.852s-53.656-119.848-119.848-119.848zm0 219.722H109.371c-49.238.215-89.473-39.254-90.207-88.488-.73-49.235 38.305-89.879 87.531-91.133a9.98 9.98 0 007.957-4.34 9.964 9.964 0 001.172-8.992C96 102.852 125.488 40.727 181.977 20.215 238.46-.297 300.94 28.44 322.133 84.675a9.98 9.98 0 0013.539 5.595 79.317 79.317 0 0133.371-7.395c38 .07 70.723 26.836 78.312 64.07 1.086 5.414 6.36 8.914 11.766 7.82a101.304 101.304 0 0119.785-1.976c55.16 0 99.875 44.719 99.875 99.871 0 55.16-44.715 99.875-99.875 99.875zm0 0"/></symbol><symbol viewBox="0 0 512 512" id="fb" xmlns="http://www.w3.org/2000/svg"><path d="M448 0H64C28.704 0 0 28.704 0 64v384c0 35.296 28.704 64 64 64h192V336h-64v-80h64v-64c0-53.024 42.976-96 96-96h64v80h-32c-17.664 0-32-1.664-32 16v64h80l-32 80h-48v176h96c35.296 0 64-28.704 64-64V64c0-35.296-28.704-64-64-64z"/></symbol><symbol viewBox="0 0 512 512" id="instagram" xmlns="http://www.w3.org/2000/svg"><path d="M352 0H160C71.648 0 0 71.648 0 160v192c0 88.352 71.648 160 160 160h192c88.352 0 160-71.648 160-160V160C512 71.648 440.352 0 352 0zm112 352c0 61.76-50.24 112-112 112H160c-61.76 0-112-50.24-112-112V160C48 98.24 98.24 48 160 48h192c61.76 0 112 50.24 112 112v192z"/><path d="M256 128c-70.688 0-128 57.312-128 128s57.312 128 128 128 128-57.312 128-128-57.312-128-128-128zm0 208c-44.096 0-80-35.904-80-80 0-44.128 35.904-80 80-80s80 35.872 80 80c0 44.096-35.904 80-80 80z"/><circle cx="393.6" cy="118.4" r="17.056"/></symbol><symbol viewBox="0 0 512 512" id="minus" xmlns="http://www.w3.org/2000/svg"><path d="M256 0C114.853 0 0 114.833 0 256s114.853 256 256 256c141.167 0 256-114.833 256-256S397.147 0 256 0zm0 472.341c-119.295 0-216.341-97.046-216.341-216.341S136.705 39.659 256 39.659 472.341 136.705 472.341 256 375.295 472.341 256 472.341z"/><path d="M355.148 234.386H156.852c-10.946 0-19.83 8.884-19.83 19.83s8.884 19.83 19.83 19.83h198.296c10.946 0 19.83-8.884 19.83-19.83s-8.884-19.83-19.83-19.83z"/></symbol><symbol viewBox="0 0 512 512" id="plus" xmlns="http://www.w3.org/2000/svg"><path d="M256 0C114.833 0 0 114.833 0 256s114.833 256 256 256 256-114.853 256-256S397.167 0 256 0zm0 472.341c-119.275 0-216.341-97.046-216.341-216.341S136.725 39.659 256 39.659 472.341 136.705 472.341 256 375.295 472.341 256 472.341z"/><path d="M355.148 234.386H275.83v-79.318c0-10.946-8.864-19.83-19.83-19.83s-19.83 8.884-19.83 19.83v79.318h-79.318c-10.966 0-19.83 8.884-19.83 19.83s8.864 19.83 19.83 19.83h79.318v79.318c0 10.946 8.864 19.83 19.83 19.83s19.83-8.884 19.83-19.83v-79.318h79.318c10.966 0 19.83-8.884 19.83-19.83s-8.864-19.83-19.83-19.83z"/></symbol><symbol viewBox="0 0 75.9 70.6" id="server" xmlns="http://www.w3.org/2000/svg"><path d="M71.4 23.7H4.5c-2.5 0-4.5-2-4.5-4.5V4.5C0 2 2 0 4.5 0h66.9c2.5 0 4.5 2 4.5 4.5v14.6c0 2.5-2 4.6-4.5 4.6zM4.5 3C3.7 3 3 3.7 3 4.5v14.6c0 .8.7 1.5 1.5 1.5h66.9c.8 0 1.5-.7 1.5-1.5V4.5c0-.8-.7-1.5-1.5-1.5H4.5z"/><path d="M10.6 14.3c-1.4 0-2.5-1.1-2.5-2.5s1.1-2.5 2.5-2.5 2.5 1.1 2.5 2.5-1.2 2.5-2.5 2.5zm0-3c-.3 0-.5.2-.5.5s.2.5.5.5.5-.2.5-.5-.2-.5-.5-.5zm9.3 3c-1.4 0-2.5-1.1-2.5-2.5s1.1-2.5 2.5-2.5 2.5 1.1 2.5 2.5-1.1 2.5-2.5 2.5zm0-3c-.3 0-.5.2-.5.5s.2.5.5.5.5-.2.5-.5-.2-.5-.5-.5zM64.2 13.3h-19c-.8 0-1.5-.7-1.5-1.5s.7-1.5 1.5-1.5h19.1c.8 0 1.5.7 1.5 1.5s-.7 1.5-1.6 1.5zM71.4 44.3H4.5c-2.5 0-4.5-2-4.5-4.5V25.2c0-2.5 2-4.5 4.5-4.5h66.9c2.5 0 4.5 2 4.5 4.5v14.6c0 2.5-2 4.5-4.5 4.5zM4.5 23.7c-.8 0-1.5.7-1.5 1.5v14.6c0 .8.7 1.5 1.5 1.5h66.9c.8 0 1.5-.7 1.5-1.5V25.2c0-.8-.7-1.5-1.5-1.5H4.5z"/><path d="M10.6 35c-1.4 0-2.5-1.1-2.5-2.5S9.2 30 10.6 30s2.5 1.1 2.5 2.5-1.2 2.5-2.5 2.5zm0-3c-.3 0-.5.2-.5.5s.2.5.5.5.5-.2.5-.5-.2-.5-.5-.5zm9.3 3c-1.4 0-2.5-1.1-2.5-2.5s1.1-2.5 2.5-2.5 2.5 1.1 2.5 2.5-1.1 2.5-2.5 2.5zm0-3c-.3 0-.5.2-.5.5s.2.5.5.5.5-.2.5-.5-.2-.5-.5-.5zM71.4 65H4.5C2 65 0 63 0 60.5V45.8c0-2.5 2-4.5 4.5-4.5h66.9c2.5 0 4.5 2 4.5 4.5v14.6c0 2.6-2 4.6-4.5 4.6zM4.5 44.3c-.8 0-1.5.7-1.5 1.5v14.6c0 .9.7 1.6 1.5 1.6h66.9c.8 0 1.5-.7 1.5-1.5V45.8c0-.8-.7-1.5-1.5-1.5H4.5z"/><path d="M10.6 55.6c-1.4 0-2.5-1.1-2.5-2.5s1.1-2.5 2.5-2.5 2.5 1.1 2.5 2.5-1.2 2.5-2.5 2.5zm0-3c-.3 0-.5.2-.5.5s.2.5.5.5.5-.2.5-.5-.2-.5-.5-.5zm9.3 3c-1.4 0-2.5-1.1-2.5-2.5s1.1-2.5 2.5-2.5 2.5 1.1 2.5 2.5-1.1 2.5-2.5 2.5zm0-3c-.3 0-.5.2-.5.5s.2.5.5.5.5-.2.5-.5-.2-.5-.5-.5zM64.2 34h-19c-.8 0-1.5-.7-1.5-1.5s.7-1.5 1.5-1.5h19.1c.8 0 1.5.7 1.5 1.5s-.7 1.5-1.6 1.5z"/><g><path d="M64.2 54.7h-19c-.8 0-1.5-.7-1.5-1.5s.7-1.5 1.5-1.5h19.1c.8 0 1.5.7 1.5 1.5s-.7 1.5-1.6 1.5z"/></g><g><path d="M23.9 70.6h-11c-1.6 0-2.9-1.3-2.9-2.9v-4.3c0-.8.7-1.5 1.5-1.5s1.5.7 1.5 1.5v4.1h10.8v-4.1c0-.8.7-1.5 1.5-1.5s1.5.7 1.5 1.5v4.3c0 1.6-1.3 2.9-2.9 2.9zm39.2 0H52c-1.6 0-2.9-1.3-2.9-2.9v-4.3c0-.8.7-1.5 1.5-1.5s1.5.7 1.5 1.5v4.1H63v-4.1c0-.8.7-1.5 1.5-1.5s1.5.7 1.5 1.5v4.3c0 1.6-1.3 2.9-2.9 2.9z"/></g></symbol><symbol viewBox="0 0 511.343 511.343" id="shopping-cart" xmlns="http://www.w3.org/2000/svg"><path d="M490.334 106.668H90.526l-5.943-66.207c-.972-10.827-10.046-19.123-20.916-19.123H21c-11.598 0-21 9.402-21 21s9.402 21 21 21h23.468C57.293 206.22 24.147-163.077 68.621 332.427c1.714 19.394 12.193 40.439 30.245 54.739C66.319 428.73 96.057 490.005 149 490.005c43.942 0 74.935-43.826 59.866-85.334h114.936c-15.05 41.455 15.876 85.334 59.866 85.334 35.106 0 63.667-28.561 63.667-63.667s-28.561-63.667-63.667-63.667H149.142c-15.952 0-29.853-9.624-35.853-23.646l335.608-19.724a21.002 21.002 0 0019.141-15.87l42.67-170.67c3.308-13.234-6.71-26.093-20.374-26.093zM149 448.005c-11.946 0-21.666-9.72-21.666-21.667s9.72-21.667 21.666-21.667c11.947 0 21.667 9.72 21.667 21.667s-9.72 21.667-21.667 21.667zm234.667 0c-11.947 0-21.667-9.72-21.667-21.667s9.72-21.667 21.667-21.667 21.667 9.72 21.667 21.667-9.72 21.667-21.667 21.667zm47.366-169.726l-323.397 19.005-13.34-148.617h369.142z"/></symbol><symbol class="kb24-crm-button-icon" viewBox="0 0 28 30" id="tel" xmlns="http://www.w3.org/2000/svg"><path class="kb24-crm-button-call-icon" fill-rule="evenodd" d="M21.872 19.905c-.947-.968-2.13-.968-3.072 0-.718.737-1.256.974-1.962 1.723-.193.206-.356.25-.591.112-.465-.262-.96-.474-1.407-.761-2.082-1.355-3.827-3.097-5.372-5.057-.767-.974-1.449-2.017-1.926-3.19-.096-.238-.078-.394.109-.587.718-.718.96-.98 1.666-1.717.984-1.024.984-2.223-.006-3.253-.561-.586-1.104-1.397-1.562-2.034-.457-.637-.816-1.393-1.402-1.986C5.4 2.2 4.217 2.2 3.275 3.16c-.725.737-1.419 1.492-2.155 2.216C.438 6.045.093 6.863.02 7.818c-.115 1.555.254 3.022.773 4.452 1.062 2.959 2.68 5.587 4.642 7.997 2.65 3.259 5.813 5.837 9.513 7.698 1.666.836 3.392 1.48 5.27 1.585 1.291.075 2.414-.262 3.313-1.304.616-.712 1.31-1.361 1.962-2.042.966-1.011.972-2.235.012-3.234-1.147-1.192-2.48-1.879-3.634-3.065zm-.49-5.36l.268-.047c.583-.103.953-.707.79-1.295a10.395 10.395 0 00-2.537-4.445 9.826 9.826 0 00-4.589-2.708c-.575-.15-1.149.248-1.231.855l-.038.28c-.07.522.253 1.01.747 1.142a7.614 7.614 0 013.517 2.086 7.996 7.996 0 011.953 3.412.99.99 0 001.12.72zm2.559-9.85C21.619 2.292 18.74.69 15.56.02c-.56-.117-1.1.283-1.178.868l-.038.28a1.027 1.027 0 00.786 1.15c2.739.584 5.218 1.968 7.217 4.03a14.86 14.86 0 013.803 7.012c.122.53.617.873 1.136.781l.265-.047c.569-.1.933-.678.8-1.259a17.276 17.276 0 00-4.41-8.14z"/></symbol><symbol viewBox="0 0 16 16" id="telegram" xmlns="http://www.w3.org/2000/svg"><path d="M14.629 3.698l-2.012 9.618c-.152.679-.548.848-1.11.528l-3.066-2.29-1.48 1.442c-.163.166-.3.305-.616.305l.22-3.165 5.683-5.204c.247-.223-.054-.347-.384-.123L4.839 9.29l-3.024-.959c-.658-.208-.67-.667.137-.986L13.78 2.727c.548-.208 1.027.124.849.971z"/></symbol><symbol viewBox="0 0 512 512" id="twitter" xmlns="http://www.w3.org/2000/svg"><path d="M512 97.248c-19.04 8.352-39.328 13.888-60.48 16.576 21.76-12.992 38.368-33.408 46.176-58.016-20.288 12.096-42.688 20.64-66.56 25.408C411.872 60.704 384.416 48 354.464 48c-58.112 0-104.896 47.168-104.896 104.992 0 8.32.704 16.32 2.432 23.936-87.264-4.256-164.48-46.08-216.352-109.792-9.056 15.712-14.368 33.696-14.368 53.056 0 36.352 18.72 68.576 46.624 87.232-16.864-.32-33.408-5.216-47.424-12.928v1.152c0 51.008 36.384 93.376 84.096 103.136-8.544 2.336-17.856 3.456-27.52 3.456-6.72 0-13.504-.384-19.872-1.792 13.6 41.568 52.192 72.128 98.08 73.12-35.712 27.936-81.056 44.768-130.144 44.768-8.608 0-16.864-.384-25.12-1.44C46.496 446.88 101.6 464 161.024 464c193.152 0 298.752-160 298.752-298.688 0-4.64-.16-9.12-.384-13.568 20.832-14.784 38.336-33.248 52.608-54.496z"/></symbol><symbol class="nsvg-inline--fa nfa-user-circle nfa-w-16" viewBox="0 0 496 512" id="user" xmlns="http://www.w3.org/2000/svg"><path d="M248 104c-53 0-96 43-96 96s43 96 96 96 96-43 96-96-43-96-96-96zm0 144c-26.5 0-48-21.5-48-48s21.5-48 48-48 48 21.5 48 48-21.5 48-48 48zm0-240C111 8 0 119 0 256s111 248 248 248 248-111 248-248S385 8 248 8zm0 448c-49.7 0-95.1-18.3-130.1-48.4 14.9-23 40.4-38.6 69.6-39.5 20.8 6.4 40.6 9.6 60.5 9.6s39.7-3.1 60.5-9.6c29.2 1 54.7 16.5 69.6 39.5-35 30.1-80.4 48.4-130.1 48.4zm162.7-84.1c-24.4-31.4-62.1-51.9-105.1-51.9-10.2 0-26 9.6-57.6 9.6-31.5 0-47.4-9.6-57.6-9.6-42.9 0-80.6 20.5-105.1 51.9C61.9 339.2 48 299.2 48 256c0-110.3 89.7-200 200-200s200 89.7 200 200c0 43.2-13.9 83.2-37.3 115.9z"/></symbol><symbol viewBox="0 0 16 16" id="viber" xmlns="http://www.w3.org/2000/svg"><path d="M8 1.335c-1.071.013-3.374.19-4.662 1.37-.958.948-1.292 2.35-1.331 4.084-.033 1.728-.072 4.973 3.058 5.856v1.346s-.02.538.337.648c.438.14.688-.275 1.105-.72l.778-.879c2.142.178 3.782-.232 3.97-.293.435-.139 2.883-.451 3.283-3.696.41-3.351-.2-5.463-1.301-6.418h-.007c-.332-.306-1.668-1.279-4.652-1.29 0 0-.222-.014-.578-.008zm.037.942a7.02 7.02 0 01.488.011c2.527.007 3.732.767 4.017 1.023.927.794 1.405 2.697 1.055 5.495-.332 2.713-2.317 2.885-2.685 3.002-.156.05-1.6.406-3.42.289 0 0-1.356 1.634-1.78 2.055-.067.074-.146.095-.196.085-.071-.018-.093-.107-.089-.229l.013-2.233c-2.655-.733-2.498-3.5-2.47-4.946.033-1.446.304-2.628 1.113-3.43 1.088-.982 3.043-1.115 3.953-1.122zm.2 1.446a.166.166 0 100 .332 3.136 3.136 0 012.242.883c.606.588.9 1.378.912 2.411 0 .092.074.167.167.167V7.51a.167.167 0 00.168-.165 3.588 3.588 0 00-1.009-2.646c-.66-.645-1.496-.977-2.48-.977zm-2.198.382a.523.523 0 00-.342.067H5.69a2.61 2.61 0 00-.637.523 1.003 1.003 0 00-.256.525.71.71 0 00.026.302l.01.006c.172.504.396.988.67 1.444a8.48 8.48 0 001.29 1.762l.015.022.024.017.015.018.017.015c.532.505 1.127.94 1.769 1.295.734.4 1.18.588 1.447.667v.004c.078.024.15.034.221.034.228-.016.444-.109.613-.262a2.53 2.53 0 00.517-.638v-.004c.128-.241.085-.469-.1-.623-.37-.323-.77-.61-1.195-.857-.285-.155-.574-.061-.69.095l-.25.315c-.129.156-.361.134-.361.134l-.007.004C7.093 8.527 6.63 6.772 6.63 6.772s-.022-.239.139-.36l.312-.252c.15-.122.254-.41.094-.695a7.498 7.498 0 00-.856-1.194.475.475 0 00-.28-.167zm2.486.495c-.221 0-.221.334.003.334A2.098 2.098 0 0110 5.572 1.94 1.94 0 0110.5 7a.168.168 0 00.167.165l.007.009a.169.169 0 00.167-.167c.015-.662-.191-1.218-.595-1.663C9.84 4.9 9.273 4.65 8.549 4.6h-.024zm.274.898c-.228-.006-.236.335-.01.341.55.029.816.306.851.877a.166.166 0 00.165.163h.007a.168.168 0 00.16-.178c-.039-.744-.445-1.164-1.166-1.202H8.8z"/></symbol><symbol viewBox="0 0 511.962 511.962" id="vk" xmlns="http://www.w3.org/2000/svg"><path d="M507.399 370.471c-1.376-2.304-9.888-20.8-50.848-58.816-42.88-39.808-37.12-33.344 14.528-102.176 31.456-41.92 44.032-67.52 40.096-78.464-3.744-10.432-26.88-7.68-26.88-7.68l-76.928.448s-5.696-.768-9.952 1.76c-4.128 2.496-6.784 8.256-6.784 8.256s-12.192 32.448-28.448 60.032c-34.272 58.208-48 61.28-53.6 57.664-13.024-8.416-9.76-33.856-9.76-51.904 0-56.416 8.544-79.936-16.672-86.016-8.384-2.016-14.528-3.36-35.936-3.584-27.456-.288-50.72.096-63.872 6.528-8.768 4.288-15.52 13.856-11.392 14.4 5.088.672 16.608 3.104 22.72 11.424 7.904 10.72 7.616 34.848 7.616 34.848s4.544 66.4-10.592 74.656c-10.4 5.664-24.64-5.888-55.2-58.72-15.648-27.04-27.488-56.96-27.488-56.96s-2.272-5.568-6.336-8.544c-4.928-3.616-11.84-4.768-11.84-4.768l-73.152.448s-10.976.32-15.008 5.088c-3.584 4.256-.288 13.024-.288 13.024s57.28 133.984 122.112 201.536c59.488 61.92 127.008 57.856 127.008 57.856h30.592s9.248-1.024 13.952-6.112c4.352-4.672 4.192-13.44 4.192-13.44s-.608-41.056 18.464-47.104c18.784-5.952 42.912 39.68 68.48 57.248 19.328 13.28 34.016 10.368 34.016 10.368l68.384-.96s35.776-2.208 18.816-30.336z"/></symbol><symbol viewBox="0 0 16 16" id="whatsapp" xmlns="http://www.w3.org/2000/svg"><path fill-rule="evenodd" clip-rule="evenodd" d="M12.269 3.755A5.947 5.947 0 008.035 2 5.994 5.994 0 002.05 7.985a5.98 5.98 0 00.799 2.992L2 14.077l3.173-.832c.877.477 1.86.728 2.86.728h.002a5.993 5.993 0 005.533-8.276 5.953 5.953 0 00-1.3-1.942zm-4.234 9.208h-.002c-.89 0-1.765-.24-2.532-.694l-.181-.108-1.883.494.502-1.835-.118-.188a4.965 4.965 0 01-.76-2.647 4.982 4.982 0 016.88-4.597c.604.25 1.152.618 1.613 1.081a4.946 4.946 0 011.455 3.52 4.982 4.982 0 01-4.974 4.974zm2.729-3.726c-.15-.075-.885-.436-1.022-.486-.137-.05-.236-.075-.336.074-.1.15-.387.486-.474.586-.087.1-.175.112-.324.038-.15-.075-.631-.233-1.203-.742a4.505 4.505 0 01-.832-1.036c-.087-.15-.009-.231.066-.306.068-.066.15-.174.224-.262.075-.087.1-.149.15-.249.05-.1.025-.187-.013-.262-.037-.075-.337-.811-.461-1.11-.121-.29-.244-.252-.336-.256a6.418 6.418 0 00-.286-.005.55.55 0 00-.4.186c-.137.15-.523.512-.523 1.248s.536 1.447.61 1.547c.075.1 1.055 1.61 2.555 2.258.358.154.636.246.853.315.358.114.684.098.942.06.287-.043.885-.362 1.01-.711.124-.35.124-.649.087-.711-.038-.063-.138-.101-.287-.176z"/></symbol></svg>