<?xml version="1.0" encoding="iso-8859-1"?>
<!-- Generator: Adobe Illustrator 19.0.0, SVG Export Plug-In . SVG Version: 6.00 Build 0)  -->
<svg version="1.1" id="Capa_1" xmlns="http://www.w3.org/2000/svg" xmlns:xlink="http://www.w3.org/1999/xlink" x="0px" y="0px"
	 viewBox="0 0 512 512" style="enable-background:new 0 0 512 512;" xml:space="preserve">
	  <style type="text/css">
		.st0{fill:#ec1c24;}
	</style>
<g>
	<g>
		<g>
			<path  class="st0"    d="M486.4,34.133H366.933V25.6c-0.015-14.132-11.468-25.585-25.6-25.6H170.667c-14.132,0.015-25.585,11.468-25.6,25.6v8.533
				H25.6C11.468,34.149,0.015,45.601,0,59.733v307.2c0.015,14.132,11.468,25.585,25.6,25.6h17.067
				c0.015,14.132,11.468,25.585,25.6,25.6h115.79l-27.023,46.875c-6.989,12.277-2.802,27.892,9.392,35.025
				c3.865,2.228,8.247,3.403,12.708,3.408c2.271-0.003,4.533-0.305,6.725-0.9c6.555-1.756,12.135-6.062,15.496-11.958l29.046-50.314
				V486.4c0,14.138,11.461,25.6,25.6,25.6s25.6-11.461,25.6-25.6v-46.132l29.033,50.291c3.371,5.92,8.978,10.239,15.563,11.987
				c2.185,0.593,4.44,0.894,6.704,0.896c4.474-0.003,8.867-1.191,12.733-3.442c5.884-3.403,10.173-9.007,11.921-15.575
				c1.778-6.565,0.841-13.57-2.6-19.438l-27.011-46.854h115.79c14.132-0.015,25.585-11.468,25.6-25.6H486.4
				c14.132-0.015,25.585-11.468,25.6-25.6v-307.2C511.985,45.601,500.532,34.149,486.4,34.133z M162.133,25.6
				c0.006-4.71,3.823-8.527,8.533-8.533h170.667c4.71,0.006,8.527,3.823,8.533,8.533v8.533H162.133V25.6z M186.558,482.075
				c-1.519,2.653-4.342,4.29-7.4,4.287c-3.057-0.002-5.879-1.642-7.393-4.298s-1.49-5.919,0.064-8.552l31.926-55.379h19.715
				L186.558,482.075z M264.533,486.4c-0.006,4.71-3.823,8.527-8.533,8.533c-4.71-0.006-8.527-3.823-8.533-8.533v-68.267h17.067
				V486.4z M340.192,473.55c1.158,1.96,1.479,4.305,0.889,6.504c-0.589,2.199-2.039,4.069-4.023,5.188
				c-1.943,1.129-4.26,1.427-6.425,0.825c-2.204-0.585-4.08-2.033-5.204-4.017l-36.898-63.917h19.715L340.192,473.55z
				 M452.267,392.533c-0.006,4.71-3.823,8.527-8.533,8.533H68.267c-4.71-0.006-8.527-3.823-8.533-8.533v-25.6h392.533V392.533z
				 M494.933,366.933c-0.006,4.71-3.823,8.527-8.533,8.533h-17.067V358.4c0-4.713-3.82-8.533-8.533-8.533H51.2
				c-4.713,0-8.533,3.82-8.533,8.533v17.067H25.6c-4.71-0.006-8.527-3.823-8.533-8.533v-307.2c0.006-4.71,3.823-8.527,8.533-8.533
				h460.8c4.71,0.006,8.527,3.823,8.533,8.533V366.933z"/>
			<path  class="st0"    d="M256,102.4c-56.554,0-102.4,45.846-102.4,102.4S199.446,307.2,256,307.2c56.554,0,102.4-45.846,102.4-102.4
				C358.335,148.273,312.527,102.465,256,102.4z M256,290.133c-47.128,0-85.333-38.205-85.333-85.333
				c0-47.128,38.205-85.333,85.333-85.333s85.333,38.205,85.333,85.333C341.281,251.907,303.107,290.081,256,290.133z"/>
			<path  class="st0"    d="M303.625,197.855L303.625,197.855l-59.733-42.667c-2.602-1.857-6.022-2.104-8.864-0.641
				c-2.842,1.463-4.628,4.391-4.628,7.587v85.333c0,3.196,1.786,6.124,4.628,7.587c2.842,1.463,6.262,1.216,8.864-0.641
				l59.733-42.667c2.243-1.602,3.575-4.189,3.575-6.946S305.868,199.457,303.625,197.855z M247.467,230.883v-52.167l36.517,26.083
				L247.467,230.883z"/>
		</g>
	</g>
</g>
<g>
</g>
<g>
</g>
<g>
</g>
<g>
</g>
<g>
</g>
<g>
</g>
<g>
</g>
<g>
</g>
<g>
</g>
<g>
</g>
<g>
</g>
<g>
</g>
<g>
</g>
<g>
</g>
<g>
</g>
</svg>
