<?xml version="1.0" encoding="UTF-8"?>
<svg xmlns="http://www.w3.org/2000/svg" xmlns:xlink="http://www.w3.org/1999/xlink" width="20pt" height="20pt" viewBox="0 0 20 20" version="1.1">
<g id="surface1">
<path style=" stroke:none;fill-rule:nonzero;fill:rgb(0%,0%,0%);fill-opacity:1;" d="M 10 18 C 5.589844 18 2 14.410156 2 10 C 2 5.589844 5.589844 2 10 2 C 14.410156 2 18 5.589844 18 10 C 18 14.410156 14.410156 18 10 18 M 10 0 C 4.484375 0 0 4.484375 0 10 C 0 15.515625 4.484375 20 10 20 C 15.515625 20 20 15.515625 20 10 C 20 4.484375 15.515625 0 10 0 "/>
<path style=" stroke:none;fill-rule:nonzero;fill:rgb(0%,0%,0%);fill-opacity:1;" d="M 9 9 L 6 9 L 6 11 L 11 11 L 11 4 L 9 4 "/>
</g>
</svg>
