<?xml version="1.0" encoding="UTF-8" standalone="no"?>
<svg
   xmlns:dc="http://purl.org/dc/elements/1.1/"
   xmlns:cc="http://creativecommons.org/ns#"
   xmlns:rdf="http://www.w3.org/1999/02/22-rdf-syntax-ns#"
   xmlns:svg="http://www.w3.org/2000/svg"
   xmlns="http://www.w3.org/2000/svg"
   viewBox="0 0 18.666668 26.165333"
   height="26.165333"
   width="18.666668"
   xml:space="preserve"
   id="svg2"
   version="1.1"><metadata
     id="metadata8"><rdf:RDF><cc:Work
         rdf:about=""><dc:format>image/svg+xml</dc:format><dc:type
           rdf:resource="http://purl.org/dc/dcmitype/StillImage" /></cc:Work></rdf:RDF></metadata><defs
     id="defs6"><clipPath
       id="clipPath18"
       clipPathUnits="userSpaceOnUse"><path
         id="path16"
         d="M 0,19.624 H 14 V 0 H 0 Z" /></clipPath></defs><g
     transform="matrix(1.3333333,0,0,-1.3333333,0,26.165333)"
     id="g10"><g
       id="g12"><g
         clip-path="url(#clipPath18)"
         id="g14"><g
           transform="translate(7,3.2807)"
           id="g20"><path
             id="path22"
             style="fill:#000000;fill-opacity:1;fill-rule:nonzero;stroke:none"
             d="m 0,0 c -2.195,2.978 -5,7.421 -5,9.344 0,2.757 2.243,5 5,5 2.757,0 5,-2.243 5,-5 C 5,7.423 2.195,2.978 0,0 m 0,16.343 c -3.86,0 -7,-3.141 -7,-7 0,-3.555 5.576,-10.801 6.212,-11.614 L 0,-3.28 0.788,-2.271 C 1.424,-1.457 7,5.789 7,9.343 c 0,3.86 -3.14,7 -7,7" /></g><g
           transform="translate(7,10.624)"
           id="g24"><path
             id="path26"
             style="fill:#000000;fill-opacity:1;fill-rule:nonzero;stroke:none"
             d="M 0,0 C -1.103,0 -2,0.897 -2,2 -2,3.103 -1.103,4 0,4 1.103,4 2,3.103 2,2 2,0.897 1.103,0 0,0 m 0,6 c -2.206,0 -4,-1.794 -4,-4 0,-2.206 1.794,-4 4,-4 2.206,0 4,1.794 4,4 0,2.206 -1.794,4 -4,4" /></g></g></g></g></svg>