<?xml version="1.0" encoding="utf-8"?>
<!-- Generator: Adobe Illustrator 23.0.2, SVG Export Plug-In . SVG Version: 6.00 Build 0)  -->
<svg version="1.1" id="Слой_1" xmlns="http://www.w3.org/2000/svg" xmlns:xlink="http://www.w3.org/1999/xlink" x="0px" y="0px"
	 viewBox="0 0 68.4 82.3" style="enable-background:new 0 0 68.4 82.3;" xml:space="preserve">
<style type="text/css">
	.st0{clip-path:url(#SVGID_2_);fill:#EC1C24;}
</style>
<g>
	<defs>
		<rect id="SVGID_1_" y="0" width="68.4" height="82.3"/>
	</defs>
	<clipPath id="SVGID_2_">
		<use xlink:href="#SVGID_1_"  style="overflow:visible;"/>
	</clipPath>
	<path class="st0" d="M56.5,1.1L56.5,1.1c-0.1,0.1-0.2,0.1-0.3,0.2C35.7,13.6,17.4,29.2,2,47.6l-0.1,0.1l-0.1,0.1
		c-0.1,0.2-0.3,0.3-0.4,0.5l0.2-0.2c-1.3,1.6-1.9,3.8-1.4,5.9c0.4,1.7,1.4,3.1,2.7,4.1l1,0.7c1.5,0.8,3.2,1.1,4.9,0.7
		c0.5-0.1,0.9-0.3,1.3-0.4c0.6-0.2,1-0.6,1.5-0.9c5.1-2.8,11.5-2.7,16.6,0.5c5.1,3.3,7.9,9,7.6,14.8c-0.1,0.6-0.2,1.2-0.2,1.8
		c0,0.5,0.1,0.9,0.2,1.4c0.4,1.7,1.4,3.1,2.7,4.1l1,0.7c1.5,0.8,3.2,1.1,4.9,0.7c2.2-0.5,3.9-1.9,4.8-3.8l-0.1,0.2
		c0.1-0.2,0.2-0.4,0.3-0.6l0.1-0.1v-0.1C59.6,56,66,32.8,68.4,9V8.7C69,2.3,62-2.1,56.5,1.1"/>
</g>
</svg>
