<?xml version="1.0" encoding="utf-8"?>
<!-- Generator: Adobe Illustrator 23.0.2, SVG Export Plug-In . SVG Version: 6.00 Build 0)  -->
<svg version="1.1" id="Слой_1" xmlns="http://www.w3.org/2000/svg" xmlns:xlink="http://www.w3.org/1999/xlink" x="0px" y="0px"
	 viewBox="0 0 68.4 82.3" style="enable-background:new 0 0 68.4 82.3;" xml:space="preserve">
<style type="text/css">
	.st0{display:none;fill:#FFFFFF;}
</style>
<g>
	<path class="st0" d="M-20.8-6.3c34,0,68,0,102,0c0,35.4,0,70.8,0,106.3c-34,0-68,0-102,0C-20.8,64.5-20.8,29.1-20.8-6.3z
		 M54.8,78.1c5,0,8.3-3.6,7.8-7.8c-0.4-3.2-0.9-6.5-1.4-9.7C58.4,44.9,54.1,29.7,48,15c-2-4.7-4.1-9.3-6.4-13.9
		c-1.4-2.9-4-4.2-7.1-4.2c-3.2,0.1-5.6,1.6-7,4.5c-0.5,1.1-1.1,2.2-1.6,3.2C15.8,25.4,9.2,47.2,6.2,70.1c-0.4,3.3,1.7,6.5,4.9,7.4
		c3.6,1,7.1-0.5,8.6-3.6c0.7-1.5,1.7-2.9,2.9-4.1c7.9-8.2,21.5-5.9,26.4,4.3C50.3,76.9,52.7,78,54.8,78.1z"/>
	<path d="M50.4,71.9c-1.7-0.1-3.6-1-4.7-3.2c-4-8.1-15.1-9.9-21.6-3.4c-0.9,0.9-1.7,2.1-2.3,3.3c-1.3,2.5-4.1,3.7-7,2.9
		c-2.7-0.8-4.4-3.3-4-5.9c2.5-18.3,7.9-35.7,16.1-52.3c0.4-0.9,0.9-1.7,1.3-2.6c1.2-2.3,3.1-3.5,5.7-3.6c2.6-0.1,4.7,1,5.8,3.3
		c1.8,3.7,3.6,7.4,5.2,11.1c5,11.7,8.5,23.9,10.7,36.4c0.5,2.6,0.8,5.2,1.2,7.8C57.1,69.1,54.5,71.9,50.4,71.9z"/>
</g>
</svg>
