<?xml version="1.0" encoding="UTF-8"?>
<svg xmlns="http://www.w3.org/2000/svg" xmlns:xlink="http://www.w3.org/1999/xlink" width="19.98pt" height="20pt" viewBox="0 0 19.98 20" version="1.1">
<defs>
<clipPath id="clip1">
  <path d="M 11 0 L 19.980469 0 L 19.980469 8 L 11 8 Z M 11 0 "/>
</clipPath>
</defs>
<g id="surface1">
<path style=" stroke:none;fill-rule:nonzero;fill:rgb(0%,0%,0%);fill-opacity:1;" d="M 14.660156 16.636719 L 13.753906 17.539063 C 13.449219 17.84375 12.984375 18 12.371094 18 C 10.484375 18 7.835938 16.570313 5.621094 14.359375 C 2.289063 11.023438 1.269531 7.398438 2.4375 6.226563 L 3.347656 5.320313 L 5.042969 7.867188 L 4.492188 8.417969 L 4.664063 8.992188 C 4.695313 9.082031 5.367188 11.273438 7.039063 12.945313 C 8.707031 14.613281 10.898438 15.289063 10.992188 15.316406 L 11.566406 15.488281 L 12.113281 14.9375 Z M 11.027344 13.195313 C 10.390625 12.929688 9.3125 12.390625 8.453125 11.53125 C 7.589844 10.667969 7.050781 9.589844 6.785156 8.953125 L 7.617188 8.121094 L 3.65625 2.183594 L 1.027344 4.8125 C -1.152344 6.996094 0.246094 11.808594 4.210938 15.773438 C 6.816406 18.382813 9.945313 20 12.371094 20 C 13.519531 20 14.484375 19.640625 15.171875 18.953125 L 17.796875 16.324219 L 11.859375 12.363281 "/>
<path style=" stroke:none;fill-rule:nonzero;fill:rgb(0%,0%,0%);fill-opacity:1;" d="M 13.980469 8 L 15.980469 8 C 15.980469 5.792969 14.1875 4 11.980469 4 L 11.980469 6 C 13.085938 6 13.980469 6.898438 13.980469 8 "/>
<g clip-path="url(#clip1)" clip-rule="nonzero">
<path style=" stroke:none;fill-rule:nonzero;fill:rgb(0%,0%,0%);fill-opacity:1;" d="M 11.980469 0 L 11.980469 2 C 15.289063 2 17.980469 4.691406 17.980469 8 L 19.980469 8 C 19.980469 3.589844 16.394531 0 11.980469 0 "/>
</g>
</g>
</svg>
